<mxfile host="65bd71144e">
    <diagram id="B1CV0jv4hlIeRTd1YZfU" name="Page-2">
        <mxGraphModel dx="561" dy="515" grid="0" gridSize="10" guides="1" tooltips="1" connect="1" arrows="1" fold="1" page="1" pageScale="1" pageWidth="850" pageHeight="1100" math="0" shadow="0">
            <root>
                <mxCell id="0"/>
                <mxCell id="1" parent="0"/>
                <mxCell id="7g17a0SanZMItLns1XjD-1" style="edgeStyle=none;html=1;exitX=0.5;exitY=1;exitDx=0;exitDy=0;entryX=0.5;entryY=0;entryDx=0;entryDy=0;" parent="1" source="7g17a0SanZMItLns1XjD-2" target="7g17a0SanZMItLns1XjD-7" edge="1">
                    <mxGeometry relative="1" as="geometry"/>
                </mxCell>
                <mxCell id="7g17a0SanZMItLns1XjD-35" style="edgeStyle=none;html=1;exitX=0.5;exitY=0;exitDx=0;exitDy=0;entryX=0.5;entryY=1;entryDx=0;entryDy=0;" parent="1" source="7g17a0SanZMItLns1XjD-4" target="7g17a0SanZMItLns1XjD-5" edge="1">
                    <mxGeometry relative="1" as="geometry"/>
                </mxCell>
                <mxCell id="7g17a0SanZMItLns1XjD-4" value="Java SDK" style="rounded=1;whiteSpace=wrap;html=1;" parent="1" vertex="1">
                    <mxGeometry x="170" y="441" width="44" height="50" as="geometry"/>
                </mxCell>
                <mxCell id="7g17a0SanZMItLns1XjD-40" style="edgeStyle=none;html=1;exitX=0.5;exitY=0;exitDx=0;exitDy=0;entryX=0.25;entryY=1;entryDx=0;entryDy=0;startArrow=classic;startFill=1;" parent="1" source="7g17a0SanZMItLns1XjD-5" target="7g17a0SanZMItLns1XjD-19" edge="1">
                    <mxGeometry relative="1" as="geometry"/>
                </mxCell>
                <mxCell id="7g17a0SanZMItLns1XjD-5" value="Java worker" style="rounded=1;whiteSpace=wrap;html=1;" parent="1" vertex="1">
                    <mxGeometry x="170" y="379" width="90" height="50" as="geometry"/>
                </mxCell>
                <mxCell id="7g17a0SanZMItLns1XjD-7" value="Execution Engine&lt;br&gt;(Spark / Flink / Google Dataflow / ...)" style="rounded=1;whiteSpace=wrap;html=1;" parent="1" vertex="1">
                    <mxGeometry x="170" y="247" width="290" height="50" as="geometry"/>
                </mxCell>
                <mxCell id="7g17a0SanZMItLns1XjD-43" style="edgeStyle=none;html=1;exitX=0.5;exitY=0;exitDx=0;exitDy=0;entryX=0.5;entryY=1;entryDx=0;entryDy=0;startArrow=classic;startFill=1;" parent="1" source="7g17a0SanZMItLns1XjD-8" target="7g17a0SanZMItLns1XjD-19" edge="1">
                    <mxGeometry relative="1" as="geometry"/>
                </mxCell>
                <mxCell id="7g17a0SanZMItLns1XjD-8" value="Python worker" style="rounded=1;whiteSpace=wrap;html=1;" parent="1" vertex="1">
                    <mxGeometry x="270" y="379" width="90" height="50" as="geometry"/>
                </mxCell>
                <mxCell id="7g17a0SanZMItLns1XjD-42" style="edgeStyle=none;html=1;exitX=0.5;exitY=0;exitDx=0;exitDy=0;entryX=0.75;entryY=1;entryDx=0;entryDy=0;startArrow=classic;startFill=1;" parent="1" source="7g17a0SanZMItLns1XjD-10" target="7g17a0SanZMItLns1XjD-19" edge="1">
                    <mxGeometry relative="1" as="geometry"/>
                </mxCell>
                <mxCell id="7g17a0SanZMItLns1XjD-10" value="Go worker" style="rounded=1;whiteSpace=wrap;html=1;" parent="1" vertex="1">
                    <mxGeometry x="370" y="379" width="90" height="50" as="geometry"/>
                </mxCell>
                <mxCell id="7g17a0SanZMItLns1XjD-37" style="edgeStyle=none;html=1;exitX=0.5;exitY=0;exitDx=0;exitDy=0;entryX=0.5;entryY=1;entryDx=0;entryDy=0;" parent="1" source="7g17a0SanZMItLns1XjD-12" target="7g17a0SanZMItLns1XjD-5" edge="1">
                    <mxGeometry relative="1" as="geometry"/>
                </mxCell>
                <mxCell id="7g17a0SanZMItLns1XjD-12" value="Scio SDK" style="rounded=1;whiteSpace=wrap;html=1;" parent="1" vertex="1">
                    <mxGeometry x="216" y="441" width="44" height="50" as="geometry"/>
                </mxCell>
                <mxCell id="7g17a0SanZMItLns1XjD-39" style="edgeStyle=none;html=1;exitX=0.5;exitY=0;exitDx=0;exitDy=0;entryX=0.5;entryY=1;entryDx=0;entryDy=0;" parent="1" source="7g17a0SanZMItLns1XjD-14" target="7g17a0SanZMItLns1XjD-10" edge="1">
                    <mxGeometry relative="1" as="geometry"/>
                </mxCell>
                <mxCell id="7g17a0SanZMItLns1XjD-14" value="Python SDK" style="rounded=1;whiteSpace=wrap;html=1;" parent="1" vertex="1">
                    <mxGeometry x="370" y="441" width="90" height="50" as="geometry"/>
                </mxCell>
                <mxCell id="7g17a0SanZMItLns1XjD-38" style="edgeStyle=none;html=1;exitX=0.5;exitY=0;exitDx=0;exitDy=0;entryX=0.5;entryY=1;entryDx=0;entryDy=0;" parent="1" source="7g17a0SanZMItLns1XjD-16" target="7g17a0SanZMItLns1XjD-8" edge="1">
                    <mxGeometry relative="1" as="geometry"/>
                </mxCell>
                <mxCell id="7g17a0SanZMItLns1XjD-16" value="Go SDK" style="rounded=1;whiteSpace=wrap;html=1;" parent="1" vertex="1">
                    <mxGeometry x="270" y="441" width="90" height="50" as="geometry"/>
                </mxCell>
                <mxCell id="7g17a0SanZMItLns1XjD-44" style="edgeStyle=none;html=1;exitX=0.5;exitY=0;exitDx=0;exitDy=0;entryX=0.5;entryY=1;entryDx=0;entryDy=0;" parent="1" source="7g17a0SanZMItLns1XjD-19" target="7g17a0SanZMItLns1XjD-7" edge="1">
                    <mxGeometry relative="1" as="geometry"/>
                </mxCell>
                <mxCell id="7g17a0SanZMItLns1XjD-19" value="Fn API / Runners" style="rounded=1;whiteSpace=wrap;html=1;fillColor=#b0e3e6;strokeColor=#0e8088;" parent="1" vertex="1">
                    <mxGeometry x="170" y="311" width="289" height="50" as="geometry"/>
                </mxCell>
                <mxCell id="7g17a0SanZMItLns1XjD-2" value="Beam / Runner API&lt;br&gt;(Pipeline Construction)" style="rounded=1;whiteSpace=wrap;html=1;fillColor=#b0e3e6;strokeColor=#0e8088;" parent="1" vertex="1">
                    <mxGeometry x="170" y="181" width="290" height="50" as="geometry"/>
                </mxCell>
            </root>
        </mxGraphModel>
    </diagram>
</mxfile>